<svg xmlns="http://www.w3.org/2000/svg" viewBox="0 0 17 48" fill="#1d1d1f">
  <path d="M15.5752 19.0792C15.4787 19.1792 13.546 20.2845 13.546 22.7009C13.546 25.4868 16.0045 26.4862 16.0764 26.5104C16.0644 26.5741 15.7049 27.7919 14.8572 29.0339C14.1211 30.1392 13.3491 31.2203 12.1887 31.2203C11.0283 31.2203 10.6567 30.5471 9.33 30.5471C8.03927 30.5471 7.47353 31.2445 6.41308 31.2445C5.35262 31.2445 4.60458 30.2451 3.74493 28.9789C2.73252 27.4636 1.9126 25.1347 1.9126 22.9059C1.9126 19.0792 4.50299 17.0499 7.05742 17.0499C8.18186 17.0499 9.1307 17.7835 9.85072 17.7835C10.5348 17.7835 11.6111 17.0016 12.8911 17.0016C13.3971 17.0016 15.3298 17.0499 15.5752 19.0792ZM11.2158 15.3684C11.7577 14.7314 12.1527 13.8445 12.1527 12.9576C12.1527 12.8334 12.1407 12.7092 12.1168 12.6092C11.2278 12.6454 10.1673 13.2101 9.56159 13.9196C9.07995 14.4663 8.59232 15.3684 8.59232 16.2673C8.59232 16.4036 8.61628 16.54 8.62826 16.5883C8.68821 16.6003 8.78413 16.6124 8.88005 16.6124C9.67312 16.6124 10.6219 16.0718 11.2158 15.3684Z"/>
</svg>
